<svg width="18" height="17" viewBox="0 0 18 17" fill="none" xmlns="http://www.w3.org/2000/svg">
<path d="M7.33268 3.48763H10.666C10.666 3.0456 10.4904 2.62168 10.1779 2.30912C9.8653 1.99656 9.44138 1.82096 8.99935 1.82096C8.55732 1.82096 8.1334 1.99656 7.82084 2.30912C7.50828 2.62168 7.33268 3.0456 7.33268 3.48763ZM5.66602 3.48763C5.66602 2.60358 6.0172 1.75573 6.64233 1.13061C7.26745 0.505486 8.11529 0.154297 8.99935 0.154297C9.8834 0.154297 10.7312 0.505486 11.3564 1.13061C11.9815 1.75573 12.3327 2.60358 12.3327 3.48763H16.4993C16.7204 3.48763 16.9323 3.57543 17.0886 3.73171C17.2449 3.88799 17.3327 4.09995 17.3327 4.32096C17.3327 4.54198 17.2449 4.75394 17.0886 4.91022C16.9323 5.0665 16.7204 5.1543 16.4993 5.1543H15.7643L15.026 13.771C14.955 14.603 14.5743 15.3781 13.9592 15.9429C13.3441 16.5077 12.5394 16.8211 11.7043 16.821H6.29435C5.45927 16.8211 4.65458 16.5077 4.03947 15.9429C3.42437 15.3781 3.04366 14.603 2.97268 13.771L2.23435 5.1543H1.49935C1.27834 5.1543 1.06637 5.0665 0.910093 4.91022C0.753813 4.75394 0.666016 4.54198 0.666016 4.32096C0.666016 4.09995 0.753813 3.88799 0.910093 3.73171C1.06637 3.57543 1.27834 3.48763 1.49935 3.48763H5.66602ZM11.4993 8.48763C11.4993 8.26662 11.4116 8.05466 11.2553 7.89837C11.099 7.74209 10.887 7.6543 10.666 7.6543C10.445 7.6543 10.233 7.74209 10.0768 7.89837C9.92048 8.05466 9.83268 8.26662 9.83268 8.48763V11.821C9.83268 12.042 9.92048 12.2539 10.0768 12.4102C10.233 12.5665 10.445 12.6543 10.666 12.6543C10.887 12.6543 11.099 12.5665 11.2553 12.4102C11.4116 12.2539 11.4993 12.042 11.4993 11.821V8.48763ZM7.33268 7.6543C7.11167 7.6543 6.89971 7.74209 6.74343 7.89837C6.58715 8.05466 6.49935 8.26662 6.49935 8.48763V11.821C6.49935 12.042 6.58715 12.2539 6.74343 12.4102C6.89971 12.5665 7.11167 12.6543 7.33268 12.6543C7.5537 12.6543 7.76566 12.5665 7.92194 12.4102C8.07822 12.2539 8.16602 12.042 8.16602 11.821V8.48763C8.16602 8.26662 8.07822 8.05466 7.92194 7.89837C7.76566 7.74209 7.5537 7.6543 7.33268 7.6543Z" fill="white"/>
</svg>
