<svg width="20" height="21" viewBox="0 0 20 21" fill="none" xmlns="http://www.w3.org/2000/svg">
<path d="M9.99935 3.82227C12.3218 3.82227 14.3852 4.86977 15.8543 6.16643C16.5918 6.81727 17.1993 7.5481 17.6277 8.2756C18.0485 8.98977 18.3327 9.76393 18.3327 10.4889C18.3327 11.2139 18.0493 11.9881 17.6277 12.7023C17.1993 13.4298 16.5918 14.1606 15.8543 14.8114C14.3852 16.1081 12.321 17.1556 9.99935 17.1556C7.67685 17.1556 5.61352 16.1081 4.14435 14.8114C3.40685 14.1606 2.79935 13.4298 2.37102 12.7023C1.94935 11.9881 1.66602 11.2139 1.66602 10.4889C1.66602 9.76393 1.94935 8.98977 2.37102 8.2756C2.79935 7.5481 3.40685 6.81727 4.14435 6.16643C5.61352 4.86977 7.67768 3.82227 9.99935 3.82227ZM9.99935 5.48893C8.17935 5.48893 6.49268 6.31643 5.24768 7.4156C4.62768 7.96227 4.13768 8.55977 3.80685 9.12143C3.46852 9.69643 3.33268 10.1723 3.33268 10.4889C3.33268 10.8056 3.46852 11.2814 3.80685 11.8564C4.13768 12.4181 4.62768 13.0148 5.24768 13.5623C6.49268 14.6614 8.17935 15.4889 9.99935 15.4889C11.8193 15.4889 13.506 14.6614 14.751 13.5623C15.371 13.0148 15.861 12.4181 16.1918 11.8564C16.5302 11.2814 16.666 10.8056 16.666 10.4889C16.666 10.1723 16.5302 9.69643 16.1918 9.12143C15.861 8.55977 15.371 7.9631 14.751 7.4156C13.506 6.31643 11.8193 5.48893 9.99935 5.48893ZM9.99935 7.98893C10.0727 7.98893 10.1452 7.99199 10.2168 7.9981C10.0359 8.31548 9.96429 8.68351 10.013 9.04558C10.0616 9.40765 10.2279 9.7437 10.4863 10.002C10.7446 10.2604 11.0806 10.4266 11.4427 10.4753C11.8048 10.524 12.1728 10.4524 12.4902 10.2714C12.534 10.7732 12.4252 11.2766 12.1781 11.7155C11.9309 12.1544 11.557 12.5085 11.1052 12.7312C10.6534 12.954 10.1449 13.035 9.6462 12.9638C9.14755 12.8926 8.68203 12.6724 8.31066 12.3321C7.93928 11.9918 7.67937 11.5472 7.56498 11.0567C7.45059 10.5661 7.48705 10.0524 7.66959 9.58296C7.85213 9.11349 8.17224 8.7101 8.58796 8.42566C9.00368 8.14122 9.49563 7.989 9.99935 7.98893Z" fill="white"/>
</svg>
