<svg width="20" height="21" viewBox="0 0 20 21" fill="none" xmlns="http://www.w3.org/2000/svg">
<path d="M10.2008 3.76758C13.7308 3.76758 16.6308 6.37758 17.1208 9.76758H19.2008L15.7008 13.7676L12.2008 9.76758H14.5208C14.2969 8.78877 13.7479 7.91475 12.9633 7.28817C12.1787 6.66158 11.2049 6.31944 10.2008 6.31758C8.75078 6.31758 7.47078 7.02758 6.66078 8.09758L4.95078 6.14758C5.6055 5.39939 6.41271 4.79992 7.31822 4.38943C8.22373 3.97893 9.20657 3.7669 10.2008 3.76758ZM9.80078 17.2076C6.28078 17.2076 3.37078 14.5976 2.88078 11.2076H0.800781L4.30078 7.20758C5.47078 8.53758 6.63078 9.87758 7.80078 11.2076H5.48078C5.70466 12.1864 6.25371 13.0604 7.0383 13.687C7.82289 14.3136 8.7967 14.6557 9.80078 14.6576C11.2508 14.6576 12.5308 13.9476 13.3408 12.8776L15.0508 14.8276C14.3969 15.5768 13.5899 16.1769 12.6842 16.5875C11.7785 16.9981 10.7952 17.2096 9.80078 17.2076Z" fill="white"/>
</svg>
